<svg width="33" height="33" viewBox="0 0 33 33" fill="none" xmlns="http://www.w3.org/2000/svg">
<path d="M7.73486 4.125C7.45443 4.1249 7.17925 4.20104 6.93875 4.34526C6.69825 4.48949 6.50148 4.69638 6.36949 4.94381L2.24449 12.6782C2.10354 12.9425 2.04234 13.242 2.06834 13.5404C2.09433 13.8388 2.2064 14.1232 2.39092 14.3591L15.2816 30.8591C15.4262 31.0443 15.6112 31.1941 15.8224 31.2971C16.0336 31.4001 16.2655 31.4536 16.5005 31.4536C16.7355 31.4536 16.9674 31.4001 17.1786 31.2971C17.3898 31.1941 17.5747 31.0443 17.7194 30.8591L30.6101 14.3591C30.7943 14.123 30.906 13.8385 30.9316 13.5401C30.9572 13.2417 30.8957 12.9423 30.7544 12.6782L26.6294 4.94381C26.4976 4.69669 26.3012 4.49 26.0611 4.34579C25.8209 4.20159 25.5462 4.12527 25.2661 4.125H7.73486ZM5.91368 12.375L8.66299 7.21875H11.2968L10.0077 12.375H5.91368ZM7.18418 15.4687H10.3687L12.491 22.2606L7.18418 15.4687ZM13.6089 15.4687H19.3921L16.5005 24.7211L13.6089 15.4687ZM22.6323 15.4687H25.8168L20.51 22.2606L22.6344 15.4687H22.6323ZM27.0873 12.375H22.9932L21.7042 7.21875H24.338L27.0873 12.375ZM19.8046 12.375H13.1964L14.4854 7.21875H18.5156L19.8046 12.375Z" fill="white"/>
</svg>
