<svg width="44" height="45" viewBox="0 0 44 45" fill="none" xmlns="http://www.w3.org/2000/svg">
<path d="M26.1253 39.7332C25.4226 40.436 24.5517 40.7873 23.5128 40.7873C22.4739 40.7873 21.6031 40.436 20.9003 39.7332L4.767 23.5998C4.43089 23.2637 4.16323 22.8665 3.964 22.4082C3.76478 21.9498 3.66578 21.461 3.667 20.9415V7.83317C3.667 6.82484 4.02634 5.96134 4.745 5.24267C5.46367 4.52401 6.32656 4.16528 7.33367 4.16651H20.442C20.9614 4.16651 21.4503 4.26612 21.9087 4.46534C22.367 4.66456 22.7642 4.93162 23.1003 5.26651L39.2337 21.4457C39.9364 22.1485 40.2878 23.012 40.2878 24.0362C40.2878 25.0604 39.9364 25.9233 39.2337 26.6248L26.1253 39.7332ZM11.917 15.1665C12.6809 15.1665 13.3305 14.8988 13.8658 14.3635C14.4012 13.8282 14.6682 13.1792 14.667 12.4165C14.667 11.6526 14.3993 11.003 13.864 10.4677C13.3287 9.93234 12.6797 9.66528 11.917 9.66651C11.1531 9.66651 10.5035 9.93417 9.96817 10.4695C9.43284 11.0048 9.16578 11.6538 9.167 12.4165C9.167 13.1804 9.43467 13.83 9.97 14.3653C10.5053 14.9007 11.1543 15.1677 11.917 15.1665Z" fill="white"/>
</svg>
