<svg width="33" height="33" viewBox="0 0 33 33" fill="none" xmlns="http://www.w3.org/2000/svg">
<path d="M16.5 16.0531L14.3481 17.7347C14.228 17.8145 14.1125 17.8159 14.0016 17.7389C13.8907 17.6619 13.8582 17.561 13.904 17.4364L14.718 14.707L12.5757 13.1532C12.4612 13.0735 12.4314 12.9681 12.4864 12.837C12.5414 12.705 12.6312 12.639 12.7559 12.639H15.4206L16.236 9.92612C16.2818 9.80146 16.3698 9.73913 16.5 9.73913C16.6302 9.73913 16.7182 9.80146 16.764 9.92612L17.5794 12.639H20.2359C20.3615 12.639 20.4531 12.705 20.5109 12.837C20.5686 12.969 20.5398 13.0744 20.4242 13.1532L18.2738 14.707L19.0891 17.4364C19.135 17.561 19.1024 17.6619 18.9915 17.7389C18.8797 17.8159 18.7642 17.8145 18.645 17.7347L16.5 16.0531ZM16.5 27.4478L11.0509 29.0758C10.698 29.2013 10.3721 29.1486 10.0733 28.9176C9.77442 28.6866 9.625 28.386 9.625 28.0156V20.4476C8.75417 19.5915 8.07813 18.5886 7.59688 17.4391C7.11563 16.2896 6.875 15.0599 6.875 13.75C6.875 11.0669 7.80863 8.79221 9.67588 6.92588C11.5422 5.05863 13.8169 4.125 16.5 4.125C19.1831 4.125 21.4578 5.05863 23.3241 6.92588C25.1914 8.79221 26.125 11.0669 26.125 13.75C26.125 15.0599 25.8844 16.2896 25.4031 17.4391C24.9219 18.5886 24.2458 19.591 23.375 20.4462V28.0143C23.375 28.3846 23.2256 28.6853 22.9268 28.9163C22.6279 29.1473 22.3025 29.2 21.9505 29.0744L16.5 27.4478ZM16.5 22C18.7917 22 20.7396 21.1979 22.3438 19.5938C23.9479 17.9896 24.75 16.0417 24.75 13.75C24.75 11.4583 23.9479 9.51042 22.3438 7.90625C20.7396 6.30208 18.7917 5.5 16.5 5.5C14.2083 5.5 12.2604 6.30208 10.6562 7.90625C9.05208 9.51042 8.25 11.4583 8.25 13.75C8.25 16.0417 9.05208 17.9896 10.6562 19.5938C12.2604 21.1979 14.2083 22 16.5 22ZM11 27.5605L16.5 26.0205L22 27.5605V21.6068C21.2327 22.1705 20.3807 22.6059 19.4439 22.913C18.508 23.221 17.5267 23.375 16.5 23.375C15.4733 23.375 14.492 23.221 13.5561 22.913C12.6193 22.6068 11.7673 22.1714 11 21.6068V27.5605Z" fill="white"/>
</svg>
