<svg width="60" height="59" viewBox="0 0 60 59" fill="none" xmlns="http://www.w3.org/2000/svg">
<rect x="0.523438" y="0.0708008" width="58.8222" height="58.8222" rx="29.4111" fill="white" fill-opacity="0.2"/>
<path fill-rule="evenodd" clip-rule="evenodd" d="M29.8722 48.2812C34.9244 48.2812 39.4081 44.9211 42.2147 40.3672C45.363 39.7958 47.8295 34.5027 47.8295 28.0574C47.8295 21.2306 45.0624 15.6964 41.649 15.6964C40.5915 15.6964 39.5961 16.2276 38.7257 17.1638C36.2216 15.3576 33.1678 14.2969 29.8722 14.2969C26.5146 14.2969 23.408 15.3978 20.878 17.2665C19.9857 16.2665 18.9567 15.6964 17.8611 15.6964C14.4478 15.6964 11.6807 21.2306 11.6807 28.0574C11.6807 34.6767 14.2822 40.0808 17.5519 40.4031C20.3599 44.9387 24.8333 48.2812 29.8722 48.2812ZM35.2363 29.6248C35.2086 32.628 32.7655 35.0539 29.7557 35.0539C26.7288 35.0539 24.2749 32.6001 24.2749 29.5731C24.2749 26.5462 26.7288 24.0923 29.7557 24.0923C30.0632 24.0923 30.3648 24.1177 30.6585 24.1663C29.415 26.0355 29.238 28.1443 30.3787 29.365C31.4518 30.5134 33.3879 30.5517 35.2363 29.6248Z" fill="white"/>
</svg>
